<svg viewbox="0 0 990.07421875 2138.578369140625" height="480" aria-labelledby="chart-title-mermaid-1695840083827 chart-desc-mermaid-1695840083827" role="img" xlink="http://www.w3.org/1999/xlink" xmlns="http://www.w3.org/2000/svg" width="672" id="mermaid-figure-3"><title id="chart-title-mermaid-1695840083827"></title><desc id="chart-desc-mermaid-1695840083827"></desc><style>#mermaid-figure-3 {font-family:"trebuchet ms",verdana,arial,sans-serif;font-size:16px;fill:#333;}#mermaid-figure-3 .error-icon{fill:#552222;}#mermaid-figure-3 .error-text{fill:#552222;stroke:#552222;}#mermaid-figure-3 .edge-thickness-normal{stroke-width:2px;}#mermaid-figure-3 .edge-thickness-thick{stroke-width:3.5px;}#mermaid-figure-3 .edge-pattern-solid{stroke-dasharray:0;}#mermaid-figure-3 .edge-pattern-dashed{stroke-dasharray:3;}#mermaid-figure-3 .edge-pattern-dotted{stroke-dasharray:2;}#mermaid-figure-3 .marker{fill:#333333;stroke:#333333;}#mermaid-figure-3 .marker.cross{stroke:#333333;}#mermaid-figure-3 svg{font-family:"trebuchet ms",verdana,arial,sans-serif;font-size:16px;}#mermaid-figure-3 .label{font-family:"trebuchet ms",verdana,arial,sans-serif;color:#333;}#mermaid-figure-3 .cluster-label text{fill:#333;}#mermaid-figure-3 .cluster-label span{color:#333;}#mermaid-figure-3 .label text,#mermaid-figure-3 span{fill:#333;color:#333;}#mermaid-figure-3 .node rect,#mermaid-figure-3 .node circle,#mermaid-figure-3 .node ellipse,#mermaid-figure-3 .node polygon,#mermaid-figure-3 .node path{fill:#ECECFF;stroke:#9370DB;stroke-width:1px;}#mermaid-figure-3 .node .label{text-align:center;}#mermaid-figure-3 .node.clickable{cursor:pointer;}#mermaid-figure-3 .arrowheadPath{fill:#333333;}#mermaid-figure-3 .edgePath .path{stroke:#333333;stroke-width:2.0px;}#mermaid-figure-3 .flowchart-link{stroke:#333333;fill:none;}#mermaid-figure-3 .edgeLabel{background-color:#e8e8e8;text-align:center;}#mermaid-figure-3 .edgeLabel rect{opacity:0.5;background-color:#e8e8e8;fill:#e8e8e8;}#mermaid-figure-3 .cluster rect{fill:#ffffde;stroke:#aaaa33;stroke-width:1px;}#mermaid-figure-3 .cluster text{fill:#333;}#mermaid-figure-3 .cluster span{color:#333;}#mermaid-figure-3 div.mermaidTooltip{position:absolute;text-align:center;max-width:200px;padding:2px;font-family:"trebuchet ms",verdana,arial,sans-serif;font-size:12px;background:hsl(80, 100%, 96.2745098039%);border:1px solid #aaaa33;border-radius:2px;pointer-events:none;z-index:100;}#mermaid-figure-3 :root{--mermaid-font-family:"trebuchet ms",verdana,arial,sans-serif;}</style><g transform="translate(0, 0)"><marker orient="auto" markerheight="12" markerwidth="12" markerunits="userSpaceOnUse" refy="5" refx="9" viewbox="0 0 10 10" class="marker flowchart" id="flowchart-pointEnd"><path style="stroke-width: 1; stroke-dasharray: 1, 0;" class="arrowMarkerPath" d="M 0 0 L 10 5 L 0 10 z"></path></marker><marker orient="auto" markerheight="12" markerwidth="12" markerunits="userSpaceOnUse" refy="5" refx="0" viewbox="0 0 10 10" class="marker flowchart" id="flowchart-pointStart"><path style="stroke-width: 1; stroke-dasharray: 1, 0;" class="arrowMarkerPath" d="M 0 5 L 10 10 L 10 0 z"></path></marker><marker orient="auto" markerheight="11" markerwidth="11" markerunits="userSpaceOnUse" refy="5" refx="11" viewbox="0 0 10 10" class="marker flowchart" id="flowchart-circleEnd"><circle style="stroke-width: 1; stroke-dasharray: 1, 0;" class="arrowMarkerPath" r="5" cy="5" cx="5"></circle></marker><marker orient="auto" markerheight="11" markerwidth="11" markerunits="userSpaceOnUse" refy="5" refx="-1" viewbox="0 0 10 10" class="marker flowchart" id="flowchart-circleStart"><circle style="stroke-width: 1; stroke-dasharray: 1, 0;" class="arrowMarkerPath" r="5" cy="5" cx="5"></circle></marker><marker orient="auto" markerheight="11" markerwidth="11" markerunits="userSpaceOnUse" refy="5.2" refx="12" viewbox="0 0 11 11" class="marker cross flowchart" id="flowchart-crossEnd"><path style="stroke-width: 2; stroke-dasharray: 1, 0;" class="arrowMarkerPath" d="M 1,1 l 9,9 M 10,1 l -9,9"></path></marker><marker orient="auto" markerheight="11" markerwidth="11" markerunits="userSpaceOnUse" refy="5.2" refx="-1" viewbox="0 0 11 11" class="marker cross flowchart" id="flowchart-crossStart"><path style="stroke-width: 2; stroke-dasharray: 1, 0;" class="arrowMarkerPath" d="M 1,1 l 9,9 M 10,1 l -9,9"></path></marker><g class="root"><g class="clusters"><g id="subGraph0" class="cluster default"><rect height="1270.28125" width="628.49609375" y="629.8049087524414" x="95.8359375" ry="0" rx="0" style=""></rect><g transform="translate(329.845703125, 634.8049087524414)" class="cluster-label"><foreignobject height="18.5" width="160.4765625"><div style="display: inline-block; white-space: nowrap;" xmlns="http://www.w3.org/1999/xhtml"><span class="nodeLabel">Analysis Data Creation</span></div></foreignobject></g></g></g><g class="edgePaths"><path marker-end="url(#flowchart-pointEnd)" style="fill:none;" class="edge-thickness-normal edge-pattern-solid flowchart-link LS-A LE-B" id="L-A-B-0" d="M613.48046875,354.29296875L613.3971354166666,370.4733072916667C613.3138020833334,386.6536458333333,613.1471354166666,419.0143229166667,613.0638020833334,439.361328125C612.98046875,459.7083333333333,612.98046875,468.0416666666667,612.98046875,472.2083333333333L612.98046875,476.375"></path><path marker-end="url(#flowchart-pointEnd)" style="fill:none;" class="edge-thickness-normal edge-pattern-solid flowchart-link LS-C LE-L" id="L-C-L-0" d="M217.6875,426.875L217.60416666666666,430.9583333333333C217.52083333333334,435.0416666666667,217.35416666666666,443.2083333333333,217.27083333333334,451.8655122121175C217.1875,460.5226910909017,217.1875,469.6703821818034,217.1875,474.2442277272542L217.1875,478.8180732727051"></path><path marker-end="url(#flowchart-pointEnd)" style="fill:none;" class="edge-thickness-normal edge-pattern-solid flowchart-link LS-L LE-D" id="L-L-D-0" d="M217.1875,577.3618354797363L217.1875,581.9356810251871C217.1875,586.5095265706381,217.1875,595.6572176615397,217.1875,604.3977298736572C217.1875,613.1382420857748,217.1875,621.471575419108,241.27311197916666,630.5269958071984C265.3587239583333,639.5824161952888,313.5299479166667,649.3599236381364,337.6155598958333,654.2486773595601L361.701171875,659.1374310809839"></path><path marker-end="url(#flowchart-pointEnd)" style="fill:none;" class="edge-thickness-normal edge-pattern-solid flowchart-link LS-B LE-D" id="L-B-D-0" d="M612.98046875,579.8049087524414L612.98046875,583.971575419108C612.98046875,588.1382420857748,612.98046875,596.471575419108,612.98046875,604.8049087524414C612.98046875,613.1382420857748,612.98046875,621.471575419108,601.1725196589052,629.8049087524414C589.3645705678105,638.1382420857748,565.7486723856209,646.471575419108,553.9407232945262,650.6382420857748L542.1327742034314,654.8049087524414"></path><path marker-end="url(#flowchart-pointEnd)" style="fill:none;" class="edge-thickness-normal edge-pattern-solid flowchart-link LS-E LE-F" id="L-E-F-0" d="M468.951171875,1092.7111587524414L468.8678385416667,1096.7944920857747C468.7845052083333,1100.8778254191081,468.6178385416667,1109.0444920857747,468.5345052083333,1117.2944920857747C468.451171875,1125.5444920857747,468.451171875,1133.8778254191081,468.451171875,1138.0444920857747L468.451171875,1142.2111587524414"></path><path marker-end="url(#flowchart-pointEnd)" style="fill:none;" class="edge-thickness-normal edge-pattern-solid flowchart-link LS-F LE-G" id="L-F-G-0" d="M468.451171875,1194.2111587524414L468.451171875,1198.3778254191081C468.451171875,1202.5444920857747,468.451171875,1210.8778254191081,468.5345052083333,1219.2944920857747C468.6178385416667,1227.7111587524414,468.7845052083333,1236.2111587524414,468.8678385416667,1240.4611587524414L468.951171875,1244.7111587524414"></path><path marker-end="url(#flowchart-pointEnd)" style="fill:none;" class="edge-thickness-normal edge-pattern-solid flowchart-link LS-F LE-H" id="L-F-H-0" d="M324.939453125,1193.5978346324512L300.8072916666667,1197.8667219857828C276.6751302083333,1202.1356093391146,228.41080729166666,1210.673384045778,204.27864583333334,1240.078339107443C180.146484375,1269.4832941691081,180.146484375,1319.7554295857747,180.146484375,1370.0275650024414C180.146484375,1420.2997004191081,180.146484375,1470.5718358357747,189.86904435467068,1508.226880022771C199.59160433434135,1545.8819242097668,219.0367242936827,1570.919877167092,228.7592842733534,1583.4388536457548L238.4818442530241,1595.9578301244173"></path><path marker-end="url(#flowchart-pointEnd)" style="fill:none;" class="edge-thickness-normal edge-pattern-solid flowchart-link LS-D LE-E" id="L-D-E-0" d="M468.451171875,706.8049087524414L468.451171875,710.971575419108C468.451171875,715.1382420857748,468.451171875,723.471575419108,468.5345052083333,731.8882420857748C468.6178385416667,740.3049087524414,468.7845052083333,748.8049087524414,468.8678385416667,753.0549087524413L468.951171875,757.3049087524413"></path><path marker-end="url(#flowchart-pointEnd)" style="fill:none;" class="edge-thickness-normal edge-pattern-solid flowchart-link LS-G LE-H" id="L-G-H-0" d="M468.951171875,1496.3439712524414L468.8678385416667,1500.4273045857747C468.7845052083333,1504.5106379191081,468.6178385416667,1512.6773045857747,449.195397969816,1531.7307754722576C429.7729573979654,1550.7842463587403,391.09474292093074,1580.724521465039,371.7556356824134,1595.6946590181885L352.41652844389614,1610.6647965713378"></path><path marker-end="url(#flowchart-pointEnd)" style="fill:none;" class="edge-thickness-normal edge-pattern-solid flowchart-link LS-H LE-I" id="L-H-I-0" d="M288.095703125,1773.5861587524414L288.0123697916667,1777.6694920857747C287.9290364583333,1781.7528254191081,287.7623697916667,1789.9194920857747,287.6790364583333,1798.1694920857747C287.595703125,1806.4194920857747,287.595703125,1814.7528254191081,287.595703125,1818.9194920857747L287.595703125,1823.0861587524414"></path><path marker-end="url(#flowchart-pointEnd)" style="fill:none;" class="edge-thickness-normal edge-pattern-solid flowchart-link LS-F LE-K" id="L-F-K-0" d="M547.2308134191177,1194.2111587524414L559.8557559742648,1198.3778254191081C572.4806985294118,1202.5444920857747,597.7305836397059,1210.8778254191081,640.1883532425642,1233.23965982973C682.6461228454226,1255.6014942403522,742.3117769408451,1291.991829728263,772.1446039885565,1310.1869974722183L801.9774310362677,1328.3821652161737"></path><path marker-end="url(#flowchart-pointEnd)" style="fill:none;" class="edge-thickness-normal edge-pattern-solid flowchart-link LS-I LE-J" id="L-I-J-0" d="M287.595703125,1875.0861587524414L287.595703125,1879.2528254191081C287.595703125,1883.4194920857747,287.595703125,1891.7528254191081,287.595703125,1900.0861587524414C287.595703125,1908.4194920857747,287.595703125,1916.7528254191081,287.6790364583333,1925.1694920857747C287.7623697916667,1933.5861587524414,287.9290364583333,1942.0861587524414,288.0123697916667,1946.3361587524414L288.095703125,1950.5861587524414"></path></g><g class="edgeLabels"><g class="edgeLabel"><g transform="translate(0, 0)" class="label"><foreignobject height="0" width="0"><div style="display: inline-block; white-space: nowrap;" xmlns="http://www.w3.org/1999/xhtml"><span class="edgeLabel"></span></div></foreignobject></g></g><g class="edgeLabel"><g transform="translate(0, 0)" class="label"><foreignobject height="0" width="0"><div style="display: inline-block; white-space: nowrap;" xmlns="http://www.w3.org/1999/xhtml"><span class="edgeLabel"></span></div></foreignobject></g></g><g class="edgeLabel"><g transform="translate(0, 0)" class="label"><foreignobject height="0" width="0"><div style="display: inline-block; white-space: nowrap;" xmlns="http://www.w3.org/1999/xhtml"><span class="edgeLabel"></span></div></foreignobject></g></g><g class="edgeLabel"><g transform="translate(0, 0)" class="label"><foreignobject height="0" width="0"><div style="display: inline-block; white-space: nowrap;" xmlns="http://www.w3.org/1999/xhtml"><span class="edgeLabel"></span></div></foreignobject></g></g><g class="edgeLabel"><g transform="translate(0, 0)" class="label"><foreignobject height="0" width="0"><div style="display: inline-block; white-space: nowrap;" xmlns="http://www.w3.org/1999/xhtml"><span class="edgeLabel"></span></div></foreignobject></g></g><g class="edgeLabel"><g transform="translate(0, 0)" class="label"><foreignobject height="0" width="0"><div style="display: inline-block; white-space: nowrap;" xmlns="http://www.w3.org/1999/xhtml"><span class="edgeLabel"></span></div></foreignobject></g></g><g class="edgeLabel"><g transform="translate(0, 0)" class="label"><foreignobject height="0" width="0"><div style="display: inline-block; white-space: nowrap;" xmlns="http://www.w3.org/1999/xhtml"><span class="edgeLabel"></span></div></foreignobject></g></g><g class="edgeLabel"><g transform="translate(0, 0)" class="label"><foreignobject height="0" width="0"><div style="display: inline-block; white-space: nowrap;" xmlns="http://www.w3.org/1999/xhtml"><span class="edgeLabel"></span></div></foreignobject></g></g><g class="edgeLabel"><g transform="translate(0, 0)" class="label"><foreignobject height="0" width="0"><div style="display: inline-block; white-space: nowrap;" xmlns="http://www.w3.org/1999/xhtml"><span class="edgeLabel"></span></div></foreignobject></g></g><g class="edgeLabel"><g transform="translate(0, 0)" class="label"><foreignobject height="0" width="0"><div style="display: inline-block; white-space: nowrap;" xmlns="http://www.w3.org/1999/xhtml"><span class="edgeLabel"></span></div></foreignobject></g></g><g class="edgeLabel"><g transform="translate(0, 0)" class="label"><foreignobject height="0" width="0"><div style="display: inline-block; white-space: nowrap;" xmlns="http://www.w3.org/1999/xhtml"><span class="edgeLabel"></span></div></foreignobject></g></g><g class="edgeLabel"><g transform="translate(0, 0)" class="label"><foreignobject height="0" width="0"><div style="display: inline-block; white-space: nowrap;" xmlns="http://www.w3.org/1999/xhtml"><span class="edgeLabel"></span></div></foreignobject></g></g></g><g class="nodes"><g transform="translate(468.451171875, 1168.2111587524414)" id="flowchart-F-42" class="node default default"><rect height="52" width="287.0234375" y="-26" x="-143.51171875" ry="0" rx="0" style="" class="basic label-container"></rect><g transform="translate(-136.01171875, -18.5)" style="" class="label"><foreignobject height="37" width="272.0234375"><div style="display: inline-block; white-space: nowrap;" xmlns="http://www.w3.org/1999/xhtml"><span class="nodeLabel">Merge metadata with Norm peak data <br> (mergeAnalysisData.R)</span></div></foreignobject></g></g><g transform="translate(468.451171875, 924.5080337524414)" id="flowchart-E-41" class="node default default"><polygon style="" transform="translate(-167.703125,167.703125)" class="label-container" points="167.703125,0 335.40625,-167.703125 167.703125,-335.40625 0,-167.703125"></polygon><g transform="translate(-134.203125, -18.5)" style="" class="label"><foreignobject height="37" width="268.40625"><div style="display: inline-block; white-space: nowrap;" xmlns="http://www.w3.org/1999/xhtml"><span class="nodeLabel">Select nesscisary meta data variables <br> (Enter_MetadataVariables.R)</span></div></foreignobject></g></g><g transform="translate(468.451171875, 1370.0275650024414)" id="flowchart-G-43" class="node default default"><polygon style="" transform="translate(-125.81640625,125.81640625)" class="label-container" points="125.81640625,0 251.6328125,-125.81640625 125.81640625,-251.6328125 0,-125.81640625"></polygon><g transform="translate(-92.31640625, -18.5)" style="" class="label"><foreignobject height="37" width="184.6328125"><div style="display: inline-block; white-space: nowrap;" xmlns="http://www.w3.org/1999/xhtml"><span class="nodeLabel">Enter table1 labels <br> (Enter_tableOneLabels.R)</span></div></foreignobject></g></g><g transform="translate(287.595703125, 1659.4650650024414)" id="flowchart-H-44" class="node default default"><polygon style="" transform="translate(-113.62109375,113.62109375)" class="label-container" points="113.62109375,0 227.2421875,-113.62109375 113.62109375,-227.2421875 0,-113.62109375"></polygon><g transform="translate(-80.12109375, -18.5)" style="" class="label"><foreignobject height="37" width="160.2421875"><div style="display: inline-block; white-space: nowrap;" xmlns="http://www.w3.org/1999/xhtml"><span class="nodeLabel">Generate table 1 <br> (function_tableOne.R)</span></div></foreignobject></g></g><g transform="translate(468.451171875, 680.8049087524414)" id="flowchart-D-40" class="node default default"><rect height="52" width="213.5" y="-26" x="-106.75" ry="0" rx="0" style="" class="basic label-container"></rect><g transform="translate(-99.25, -18.5)" style="" class="label"><foreignobject height="37" width="198.5"><div style="display: inline-block; white-space: nowrap;" xmlns="http://www.w3.org/1999/xhtml"><span class="nodeLabel">Merge additional meta data <br> (merge_additionalVars.R)</span></div></foreignobject></g></g><g transform="translate(287.595703125, 1849.0861587524414)" id="flowchart-I-45" class="node default default"><rect height="52" width="138.2734375" y="-26" x="-69.13671875" ry="0" rx="0" style="" class="basic label-container"></rect><g transform="translate(-61.63671875, -18.5)" style="" class="label"><foreignobject height="37" width="123.2734375"><div style="display: inline-block; white-space: nowrap;" xmlns="http://www.w3.org/1999/xhtml"><span class="nodeLabel">Display table 1 <br> (displayTable1.R)</span></div></foreignobject></g></g><g transform="translate(612.98046875, 217.1875)" id="flowchart-A-36" class="node default default"><polygon style="" transform="translate(-136.60546875,136.60546875)" class="label-container" points="136.60546875,0 273.2109375,-136.60546875 136.60546875,-273.2109375 0,-136.60546875"></polygon><g transform="translate(-103.10546875, -18.5)" style="" class="label"><foreignobject height="37" width="206.2109375"><div style="display: inline-block; white-space: nowrap;" xmlns="http://www.w3.org/1999/xhtml"><span class="nodeLabel">Enter Metabolome .xlsx path <br> (Enter_ExcelPath.R)</span></div></foreignobject></g></g><g transform="translate(612.98046875, 528.0899543762207)" id="flowchart-B-37" class="node default default"><path transform="translate(-136.375,-51.714959145191706)" d="M 0,17.14330609679447 a 136.375,17.14330609679447 0,0,0 272.75 0 a 136.375,17.14330609679447 0,0,0 -272.75 0 l 0,69.14330609679448 a 136.375,17.14330609679447 0,0,0 272.75 0 l 0,-69.14330609679448" style=""></path><g transform="translate(-128.875, -18.5)" style="" class="label"><foreignobject height="37" width="257.75"><div style="display: inline-block; white-space: nowrap;" xmlns="http://www.w3.org/1999/xhtml"><span class="nodeLabel">Load Raw Peak and Annotation Data <br> (readRawData}.R)</span></div></foreignobject></g></g><g transform="translate(217.1875, 217.1875)" id="flowchart-C-38" class="node default default"><polygon style="" transform="translate(-209.1875,209.1875)" class="label-container" points="209.1875,0 418.375,-209.1875 209.1875,-418.375 0,-209.1875"></polygon><g transform="translate(-175.6875, -18.5)" style="" class="label"><foreignobject height="37" width="351.375"><div style="display: inline-block; white-space: nowrap;" xmlns="http://www.w3.org/1999/xhtml"><span class="nodeLabel">Path to additional meta data variables (optional) <br> (Enter_additionalVarsPath.R)</span></div></foreignobject></g></g><g transform="translate(217.1875, 528.0899543762207)" id="flowchart-L-39" class="node default default"><path transform="translate(-102.2265625,-49.27187574104814)" d="M 0,15.514583827365426 a 102.2265625,15.514583827365426 0,0,0 204.453125 0 a 102.2265625,15.514583827365426 0,0,0 -204.453125 0 l 0,67.51458382736543 a 102.2265625,15.514583827365426 0,0,0 204.453125 0 l 0,-67.51458382736543" style=""></path><g transform="translate(-94.7265625, -18.5)" style="" class="label"><foreignobject height="37" width="189.453125"><div style="display: inline-block; white-space: nowrap;" xmlns="http://www.w3.org/1999/xhtml"><span class="nodeLabel">Load additional meta data <br> (loadAdditionalMeta.R)</span></div></foreignobject></g></g><g transform="translate(287.595703125, 2040.3322525024414)" id="flowchart-J-46" class="node default default"><polygon style="" transform="translate(-90.24609375,90.24609375)" class="label-container" points="90.24609375,0 180.4921875,-90.24609375 90.24609375,-180.4921875 0,-90.24609375"></polygon><g transform="translate(-56.74609375, -18.5)" style="" class="label"><foreignobject height="37" width="113.4921875"><div style="display: inline-block; white-space: nowrap;" xmlns="http://www.w3.org/1999/xhtml"><span class="nodeLabel">Save table1 <br> (Save_table1.R)</span></div></foreignobject></g></g><g transform="translate(870.703125, 1370.0275650024414)" id="flowchart-K-47" class="node default default"><polygon style="" transform="translate(-111.37109375,111.37109375)" class="label-container" points="111.37109375,0 222.7421875,-111.37109375 111.37109375,-222.7421875 0,-111.37109375"></polygon><g transform="translate(-77.87109375, -18.5)" style="" class="label"><foreignobject height="37" width="155.7421875"><div style="display: inline-block; white-space: nowrap;" xmlns="http://www.w3.org/1999/xhtml"><span class="nodeLabel">Save analysis data <br> (Save_analysisdata.R)</span></div></foreignobject></g></g></g></g></g></svg>